<?xml version="1.0" encoding="UTF-8"?>
<svg width="349px" height="62px" viewBox="0 0 349 62" version="1.1" xmlns="http://www.w3.org/2000/svg" xmlns:xlink="http://www.w3.org/1999/xlink">
    <!-- Generator: Sketch 49.3 (51167) - http://www.bohemiancoding.com/sketch -->
    <title>aventri-logo-horizontal</title>
    <desc>Created with Sketch.</desc>
    <defs>
        <linearGradient x1="105.783081%" y1="100%" x2="0%" y2="0%" id="linearGradient-1">
            <stop stop-color="#0033A0" offset="0%"></stop>
            <stop stop-color="#FF595A" offset="100%"></stop>
        </linearGradient>
    </defs>
    <g id="Aventri" stroke="none" stroke-width="1" fill="none" fill-rule="evenodd">
        <g id="Aventri-Logo-Variations" transform="translate(-862.000000, -561.000000)">
            <g id="aventri-logo-horizontal" transform="translate(862.000000, 561.000000)">
                <g id="aventri-workdmark" transform="translate(89.000000, 0.000000)" fill="#000000" fill-rule="nonzero">
                    <path d="M41.5384615,21.2397198 L41.5384615,61.0354847 L34.061616,61.0354847 L34.061616,54.1107134 C32.7725505,56.5750525 30.7755538,58.5892277 28.3322325,59.8893821 C25.8487999,61.2865533 23.0496748,62.0130887 20.2060569,61.9985962 C17.3706053,62.0321321 14.5597967,61.4644783 11.9557446,60.3324134 C9.53745209,59.2748148 7.36239821,57.7237679 5.56748199,55.7768962 C1.95389149,51.7760457 -0.0336439594,46.5495595 0.000430996101,41.1376022 C-0.0137013518,38.3930182 0.488542147,35.6706458 1.48052174,33.1148839 C2.41936644,30.6241694 3.81928912,28.3362631 5.60567788,26.3731038 C7.4005941,24.4262321 9.57564798,22.8751852 11.9939405,21.8175866 C14.5979926,20.6855217 17.4088012,20.1178679 20.2442528,20.1514038 C23.0864925,20.1383003 25.8844939,20.8612278 28.3704284,22.2509868 C30.8130364,23.5521164 32.8097794,25.5660357 34.0998119,28.0296555 L34.0998119,21.1915642 L41.5384615,21.2397198 Z M20.6835055,55.1605049 C22.5837739,55.1852456 24.4667777,54.7942335 26.2028116,54.0144023 C27.7926912,53.3044652 29.2247809,52.2792953 30.4139085,50.9998634 C31.5862852,49.7119877 32.5006748,48.2075996 33.1067188,46.5695508 C34.380312,43.0621657 34.380312,39.2130388 33.1067188,35.7056537 C32.4945121,34.0562076 31.5811315,32.5371455 30.4139085,31.2271855 C29.2322794,29.9269803 27.7991292,28.8846625 26.2028116,28.1644911 C24.4661369,27.387677 22.5830989,26.9999436 20.6835055,27.0280196 C18.7958595,26.9959251 16.9244101,27.3839576 15.2023953,28.1644911 C13.6346912,28.8910384 12.2308753,29.933292 11.0772391,31.2271855 C9.93151358,32.5443608 9.03499678,34.0622899 8.43217375,35.7056537 C7.15858056,39.2130388 7.15858056,43.0621657 8.43217375,46.5695508 C9.02879689,48.2014303 9.92628258,49.7046605 11.0772391,50.9998634 C13.5422906,53.7081774 17.0389114,55.2226248 20.6835055,55.1605049 Z" id="Shape"></path>
                    <polygon id="Shape" points="54.3883429 20.925 66.8412135 50.1844385 79.4578109 20.925 87.6923077 20.925 69.4704739 61.225 64.2119531 61.225 46.1538462 20.925"></polygon>
                    <path d="M94.3898395,43.180994 C94.4313128,44.8198362 94.7108057,46.4436213 95.2193603,48.0003057 C95.6825168,49.4461168 96.4174235,50.7879459 97.3837419,51.9521414 C98.3927598,53.1305791 99.6548786,54.0602846 101.073679,54.6702332 C102.837384,55.3766826 104.72707,55.7049092 106.622886,55.6340955 C109.57865,55.6340955 111.822487,54.9915206 113.354399,53.7063708 C114.80637,52.5445211 115.928158,51.0147677 116.605739,49.272604 L124.233516,49.272604 C123.501446,52.8077234 121.526545,55.9547408 118.674774,58.130499 C117.076581,59.3550886 115.288341,60.3029242 113.383003,60.9353385 C111.200323,61.6662067 108.912479,62.0245241 106.613352,61.9955871 C103.637863,62.0563818 100.682599,61.4884346 97.9367557,60.3281052 C95.5823919,59.3149067 93.4789714,57.7876269 91.777326,55.8557839 C90.126741,53.9244912 88.8869429,51.6705043 88.1350627,49.2340495 C87.3142967,46.6094173 86.9056982,43.8709209 86.9241531,41.1183285 C86.8983555,38.2859003 87.3365181,35.4686885 88.2208752,32.7809192 C89.033296,30.3228292 90.3307817,28.0569973 92.0347635,26.1206303 C93.7165291,24.2260565 95.7900979,22.7287956 98.1083807,21.7350566 C100.732237,20.6339732 103.553693,20.0956981 106.394053,20.1543224 C108.84526,20.1364605 111.276756,20.5979477 113.554628,21.5133683 C120.276787,24.2187246 124.668216,30.816418 124.614905,38.1303552 C124.614905,38.7183113 124.614905,39.4219308 124.567231,40.2412138 C124.525271,41.2101304 124.426573,42.1756837 124.271655,43.1328008 L94.3898395,43.180994 Z M106.193824,26.0820758 C103.153205,25.9384736 100.172883,26.9726152 97.8604779,28.9736629 C95.7247005,30.9399421 94.5964252,33.73193 94.475652,37.3496267 L117.301774,37.3496267 C117.462298,34.2579347 116.306713,31.2445253 114.126712,29.0700491 C111.980557,27.0464696 109.126808,25.9681192 106.193824,26.0724372 L106.193824,26.0820758 Z" id="Shape"></path>
                    <path d="M129.230769,21.2117702 L136.918921,21.2117702 L136.918921,28.2581251 C138.085988,25.7996613 139.96174,23.7440132 142.306451,22.3538992 C144.958814,20.8300229 147.983066,20.0694554 151.042987,20.1567528 C153.526983,20.0898415 155.996455,20.5552355 158.284604,21.5215001 C160.200526,22.3542362 161.851943,23.6929504 163.060577,25.3931237 C164.180398,26.9254576 164.988367,28.6616549 165.438856,30.5036668 C165.958896,32.8154106 166.196831,35.181349 166.147486,37.5500218 L166.147486,61.1572466 L158.459335,61.1572466 L158.459335,39.9697865 C158.468402,38.2396804 158.29268,36.5135296 157.935143,34.8205271 C157.634676,33.3407986 157.047764,31.9336718 156.20725,30.6778899 C155.40259,29.5252793 154.325767,28.5878737 153.071804,27.9483953 C151.583699,27.2498702 149.949103,26.9179258 148.305539,26.9804894 C146.556716,26.9341002 144.824261,27.3268473 143.26747,28.1226183 C141.881858,28.8672095 140.675971,29.9044309 139.734027,31.1618428 C138.77313,32.4674242 138.059275,33.9369066 137.627551,35.4980613 C137.151677,37.159912 136.91312,38.880352 136.918921,40.6086044 L136.918921,61.225 L129.230769,61.225 L129.230769,21.2117702 Z" id="Shape"></path>
                    <path d="M196.153846,61.4748118 C195.387663,61.5915203 194.369319,61.7082288 193.108513,61.8249373 C191.847706,61.9416458 190.567502,62 189.229107,62 C187.870738,61.9895842 186.515269,61.8725179 185.175127,61.6498745 C183.687193,61.4069654 182.277912,60.8136744 181.062957,59.9186985 C179.659114,58.8189306 178.565926,57.370669 177.891543,55.7171925 C176.934164,53.2399955 176.498292,50.5909385 176.611339,47.936626 L176.611339,27.7460559 L169.230769,27.7460559 L169.230769,21.2881857 L176.650133,21.2881857 L176.650133,7.75 L184.331357,7.75 L184.331357,21.2881857 L194.737863,21.2881857 L194.737863,27.7460559 L184.331357,27.7460559 L184.331357,46.2249014 C184.284195,47.7829111 184.447314,49.3401625 184.816282,50.8543385 C185.04998,51.8377404 185.519379,52.7491262 186.183773,53.5094568 C186.739519,54.1069866 187.463398,54.5208221 188.259255,54.6959932 C189.142665,54.8805737 190.043418,54.9686189 190.945744,54.9585873 L193.729217,54.9585873 C194.545617,54.9831201 195.361495,54.8947582 196.153846,54.6959932 L196.153846,61.4748118 Z" id="Shape"></path>
                    <path d="M225.384615,28.6814847 C224.568281,28.5052998 223.925497,28.3878432 223.456266,28.3291149 C222.857377,28.2653002 222.255416,28.2358892 221.653259,28.2410225 C217.205199,28.2410225 213.885223,29.6929163 211.693332,32.5967039 C209.501441,35.5004914 208.405496,39.3928718 208.405496,44.2738451 L208.405496,62 L200.769231,62 L200.769231,21.5557857 L208.405496,21.5557857 L208.405496,29.4841046 C209.468285,26.8985606 211.315866,24.7246298 213.679532,23.2784822 C216.040841,21.7471614 218.783778,20.932169 221.585766,20.9293507 C222.870324,20.8912317 224.15014,21.1038944 225.35569,21.5557857 L225.384615,28.6814847 Z" id="Shape"></path>
                    <path d="M227.693521,6.35019422 C227.660731,4.67761306 228.29372,3.06191653 229.450095,1.86656058 C230.556424,0.651838495 232.122582,-0.0269846039 233.754665,0.000821966979 C237.203699,0.0275762683 239.988709,2.85934862 239.999188,6.35019422 C240.026662,8.00202185 239.355953,9.58712709 238.155751,10.7068404 C236.984144,11.8674868 235.403599,12.5073531 233.764317,12.4846647 C232.152061,12.5004825 230.601288,11.8592548 229.461197,10.7053717 C228.321107,9.55148857 227.687544,7.98195468 227.703173,6.35019422 L227.693521,6.35019422 Z M229.980927,21.637529 L237.615267,21.637529 L237.615267,62 L229.980927,62 L229.980927,21.637529 Z" id="Shape"></path>
                </g>
                <g id="handshake-smooth" transform="translate(38.500000, 41.000000) scale(1, -1) translate(-38.500000, -41.000000) translate(0.000000, 20.000000)" fill="url(#linearGradient-1)" fill-rule="nonzero">
                    <path d="M55.0935502,2.33145715e-15 C64.2752136,0.00692201186 72.4796835,5.49396891 75.6503346,13.7481204 C78.8209856,22.0022719 76.2860306,31.2746653 69.298855,36.9806502 C62.3116793,42.6866352 52.352703,43.6172463 44.346051,39.3123513 L55.0841514,33.5098068 L60.4508519,30.6152869 L60.7328152,30.462233 C66.1057727,27.4497992 67.9533044,20.8600737 64.8788017,15.6744417 C61.8042991,10.4888097 54.9496838,8.63330165 49.4965797,11.5105556 L24.4253473,25.3754407 C21.9026185,26.7751473 18.6729977,25.950837 17.2117875,23.534292 C15.7505772,21.1177471 16.6111081,18.024064 19.133837,16.6243574 L44.2520632,2.73246275 L44.2849589,2.73246275 C47.5811991,0.943205967 51.3048615,0.00184658499 55.0935502,0 Z M57.5835241,25.3739729 L32.6113521,39.2681671 L32.5786048,39.2681671 C23.4141285,44.2676597 11.8467503,42.251572 5.08609459,34.4764752 C-1.67456108,26.7013784 -1.69771324,15.3877685 5.0310682,7.58710326 C11.7598496,-0.213561959 23.3188867,-2.2734844 32.5037538,2.69122818 L21.8094141,8.48572847 L16.4669224,11.3852298 C16.3733586,11.4302531 16.284473,11.4842811 16.1909093,11.5338067 C10.8421889,14.5467392 9.00299132,21.1375555 12.0636251,26.3240458 C15.1242588,31.5105362 21.9479533,33.3663514 27.3764588,30.4886212 L52.3345963,16.648455 C53.9608005,15.6025388 56.0563788,15.5135774 57.7719558,16.4176284 C59.4875329,17.3216794 60.5385146,19.0687714 60.4989193,20.9507767 C60.4593239,22.832782 59.33572,24.537498 57.5835241,25.3739729 Z" id="Combined-Shape"></path>
                </g>
                <path d="M337.81,7 L337.81,0.82 L336,0.82 L336,0 L340.54,0 L340.54,0.82 L338.72,0.82 L338.72,7 L337.81,7 Z M349,0 L349,7 L348.08,7 L348.08,2.12 L346.07,7 L345.37,7 L343.35,2.12 L343.35,7 L342.44,7 L342.44,0 L343.32,0 L345.72,5.6 L348.12,0 L349,0 Z" id="TM" fill="#2A2E38"></path>
            </g>
        </g>
    </g>
</svg>